<?xml version="1.0" encoding="UTF-8" standalone="no"?>
<svg
   xmlns:dc="http://purl.org/dc/elements/1.1/"
   xmlns:cc="http://creativecommons.org/ns#"
   xmlns:rdf="http://www.w3.org/1999/02/22-rdf-syntax-ns#"
   xmlns:svg="http://www.w3.org/2000/svg"
   xmlns="http://www.w3.org/2000/svg"
   version="1.1"
   x="0px"
   y="0px"
   width="400"
   height="266.673"
   viewBox="-10 -43.331 399.99999 266.673"
   enable-background="new -10 -43.331 220 220"
   xml:space="preserve"
   id="svg855"><metadata
   id="metadata859"><rdf:RDF><cc:Work
       rdf:about=""><dc:format>image/svg+xml</dc:format><dc:type
         rdf:resource="http://purl.org/dc/dcmitype/StillImage" /><dc:title></dc:title></cc:Work></rdf:RDF></metadata>
<defs
   id="defs847">
</defs>


<g
   id="g864"
   transform="matrix(2.0000007,0,0,2.0000007,-10,-43.334104)"
   style="stroke-width:0.5"><path
     fill="#00a886"
     d="m 198.127,39.064 c 0.002,-4.401 2.089,-4.475 1.574,-8.845 -0.517,-4.371 0.683,-4.513 0.167,-8.883 -0.516,-4.37 -1.272,-4.281 -1.79,-8.651 -0.516,-4.371 1.655,-6.097 -0.984,-9.619 -1.378,-1.837 -2.898,3.5 -5.042,4.319 l -0.149,0.5 c 0.046,-0.083 0.104,-0.162 0.149,-0.246 0,0 8.695,52.642 -75.833,92.008 -0.055,0.025 -0.129,0.054 -0.187,0.08 1.655,0.703 1.712,2.098 4.067,2.5 2.772,0.473 3.359,-2.271 6.132,-1.799 2.773,0.475 2.704,0.929 5.474,1.423 3.742,0.666 3.387,2.639 7.126,3.325 3.738,0.686 3.724,0.76 7.463,1.446 3.738,0.686 3.829,0.191 7.567,0.877 3.554,0.652 3.452,1.583 7.476,1.61 4.612,0.03 4.449,-2.206 9.017,-2.837 4.568,-0.633 4.59,-0.476 9.158,-1.109 4.567,-0.632 4.686,-1.296 9.296,-1.169 4.847,0.134 5.529,2.555 9.359,-0.014 1.742,-1.167 0.958,-2.965 0.31,-4.96 -0.648,-1.996 -1.634,-1.999 -2.283,-3.994 -0.648,-1.995 0.615,-2.082 -0.034,-4.078 -0.648,-1.996 -0.769,-3.2 -0.896,-5.294 -0.161,-2.63 -1.194,-2.069 -0.827,-4.678 0.367,-2.61 -1.122,-1.228 -0.753,-3.838 0.367,-2.609 0.799,-2.594 1.168,-5.203 0.367,-2.61 1.918,-2.338 2.3,-4.946 0.506,-3.464 -2.779,-3.953 -2.258,-7.416 0.521,-3.463 1.624,-3.297 2.145,-6.76 0.521,-3.463 -0.163,-3.567 0.358,-7.029 0.524,-3.466 0.728,-3.218 0.73,-6.72 z"
     id="path849"
     style="stroke-width:0.25" /><path
     fill="#fdb827"
     d="m 187.619,8.643 c -2.145,0.819 -3.169,-1.858 -5.313,-1.039 -2.145,0.819 -1.522,1.992 -3.813,2.153 -2.804,0.197 -3.131,-1.167 -5.904,-1.64 -2.771,-0.472 -2.613,2.039 -5.384,1.565 -2.771,-0.472 -2.785,0.236 -5.557,-0.237 -2.772,-0.472 -2.598,-1.517 -5.367,-2.011 -3.743,-0.666 -3.627,-1.316 -7.366,-2.003 -3.739,-0.686 -4.112,1.349 -7.852,0.664 -3.739,-0.686 -3.443,-2.299 -7.183,-2.986 -3.739,-0.686 -3.604,-3.083 -7.406,-3.107 -4.611,-0.029 -4.667,1.358 -9.234,1.991 -4.568,0.635 -4.36,2.14 -8.927,2.773 -4.569,0.633 -4.69,-0.244 -9.258,0.39 -4.567,0.633 -3.375,-4.067 -7.129,-1.386 -1.837,1.311 -1.205,4.801 -0.553,6.962 0.652,2.162 1.189,2 1.841,4.163 0.652,2.162 -0.956,2.646 -0.303,4.809 0.652,2.163 2.425,1.771 2.56,4.025 0.157,2.631 -1.195,1.592 -1.563,4.202 -0.367,2.61 -1.257,3.454 -1.625,6.065 -0.369,2.61 0.89,2.788 0.523,5.398 -0.368,2.61 -0.469,2.595 -0.852,5.203 -0.506,3.464 1.225,3.724 0.703,7.186 -0.521,3.462 -2.619,2.77 -3.14,6.232 -0.521,3.462 1.42,4.13 0.898,7.592 -0.521,3.463 -1.064,3.224 -1.068,6.724 -0.005,3.916 0.191,4.119 0.625,7.441 7.732,-9.237 13.897,-15.353 13.897,-15.353 0,0 18.269,-20.198 64.808,-38.549 0.09,-0.035 0.176,-0.072 0.267,-0.107 0,0 16.919,-6.788 22.958,-17.877 l 0.149,-0.5 c -2.768,0.463 -4.432,1.257 -4.432,1.257 z"
     id="path851"
     style="stroke-width:0.25" /><path
     fill="#00529b"
     d="m 62.843,122.567 c 2.04,-5.461 4.871,-11.021 8.093,-16.435 -0.171,0 -0.339,-0.002 -0.511,-0.002 C 31.53,106.13 0,112.221 0,119.734 c 0,7.513 31.53,13.604 70.425,13.604 38.894,0 70.425,-6.091 70.425,-13.604 0,-6.015 -20.219,-11.115 -48.237,-12.911 -2.227,0.567 -3.677,0.919 -3.677,0.919 -14.732,3.578 -26.093,14.825 -26.093,14.825 z"
     id="path853"
     style="stroke-width:0.25" /></g>
</svg>
